# xmcd CD database file
#
# Track frame offsets:
#	210
#	26884
#	57476
#	78387
#	104714
#	131184
#	164315
#	197016
#	223954
#	258064
#
# Disc length: 4125 seconds
#
# Revision: 0
# Processed by: cddbd v1.5.2PL0 Copyright (c) Steve Scherf et al.
# Submitted via: CDex 1.70beta2
#
DISCID=97101b0a
DTITLE=Ralph Sutton Quartet - Featuring Bob Wilber
DYEAR=2002
DGENRE=Jazz
TTITLE0=Sunny
TTITLE1=I Want To Be Happy
TTITLE2=Old Folks
TTITLE3=What Can I Say After I Say I Am Sorry
TTITLE4=On A Slowboat To China
TTITLE5=Old Fashioned Love
TTITLE6=You Can Depend On Me
TTITLE7=Sentimental Journey
TTITLE8=Honeysuckle Rose
TTITLE9=C Jam Blues
EXTD=YEAR: 2002
EXTT0=
EXTT1=
EXTT2=
EXTT3=
EXTT4=
EXTT5=
EXTT6=
EXTT7=
EXTT8=
EXTT9=
PLAYORDER=
